  0
SECTION
  2
HEADER
  9
$ACADVER
  1
AC1014
  9
$HANDSEED
  5
FFFF
  9
$MEASUREMENT
 70
     1
  0
ENDSEC
  0
SECTION
  2
TABLES
  0
TABLE
  2
VPORT
  5
8
330
0
100
AcDbSymbolTable
 70
     4
  0
VPORT
  5
2E
330
8
100
AcDbSymbolTableRecord
100
AcDbViewportTableRecord
  2
*ACTIVE
 70
     0
 10
0.0
 20
0.0
 11
1.0
 21
1.0
 12
210.0
 22
148.5
 13
0.0
 23
0.0
 14
10.0
 24
10.0
 15
10.0
 25
10.0
 16
0.0
 26
0.0
 36
1.0
 17
0.0
 27
0.0
 37
0.0
 40
341.0
 41
1.24
 42
50.0
 43
0.0
 44
0.0
 50
0.0
 51
0.0
 71
     0
 72
   100
 73
     1
 74
     3
 75
     0
 76
     0
 77
     0
 78
     0
  0
ENDTAB
  0
TABLE
  2
LTYPE
  5
5
330
0
100
AcDbSymbolTable
 70
     1
  0
LTYPE
  5
14
330
5
100
AcDbSymbolTableRecord
100
AcDbLinetypeTableRecord
  2
BYBLOCK
 70
     0
  3

 72
    65
 73
     0
 40
0.0
  0
LTYPE
  5
15
330
5
100
AcDbSymbolTableRecord
100
AcDbLinetypeTableRecord
  2
BYLAYER
 70
     0
  3

 72
    65
 73
     0
 40
0.0
  0
LTYPE
  5
16
330
5
100
AcDbSymbolTableRecord
100
AcDbLinetypeTableRecord
  2
CONTINUOUS
 70
     0
  3
Solid line
 72
    65
 73
     0
 40
0.0
  0
ENDTAB
  0
TABLE
  2
LAYER
  5
2
100
AcDbSymbolTable
 70
2
  0
LAYER
  5
50
100
AcDbSymbolTableRecord
100
AcDbLayerTableRecord
  2
0
 70
0
  6
CONTINUOUS
  0
LAYER
  5
51
100
AcDbSymbolTableRecord
100
AcDbLayerTableRecord
  2
Layer_1
 70
0
  6
CONTINUOUS
  0
ENDTAB
  0
TABLE
  2
STYLE
  5
3
330
0
100
AcDbSymbolTable
 70
     1
  0
STYLE
  5
11
330
3
100
AcDbSymbolTableRecord
100
AcDbTextStyleTableRecord
  2
STANDARD
 70
     0
 40
0.0
 41
1.0
 50
0.0
 71
     0
 42
2.5
  3
txt
  4

  0
ENDTAB
  0
TABLE
  2
VIEW
  5
6
330
0
100
AcDbSymbolTable
 70
     0
  0
ENDTAB
  0
TABLE
  2
UCS
  5
7
330
0
100
AcDbSymbolTable
 70
     0
  0
ENDTAB
  0
TABLE
  2
APPID
  5
9
330
0
100
AcDbSymbolTable
 70
     2
  0
APPID
  5
12
330
9
100
AcDbSymbolTableRecord
100
AcDbRegAppTableRecord
  2
ACAD
 70
     0
  0
ENDTAB
  0
TABLE
  2
DIMSTYLE
  5
A
330
0
100
AcDbSymbolTable
 70
     1
  0
DIMSTYLE
105
27
330
A
100
AcDbSymbolTableRecord
100
AcDbDimStyleTableRecord
  2
ISO-25
 70
     0
  3

  4

  5

  6

  7

 40
1.0
 41
2.5
 42
0.625
 43
3.75
 44
1.25
 45
0.0
 46
0.0
 47
0.0
 48
0.0
140
2.5
141
2.5
142
0.0
143
0.03937007874016
144
1.0
145
0.0
146
1.0
147
0.625
 71
     0
 72
     0
 73
     0
 74
     0
 75
     0
 76
     0
 77
     1
 78
     8
170
     0
171
     3
172
     1
173
     0
174
     0
175
     0
176
     0
177
     0
178
     0
270
     2
271
     2
272
     2
273
     2
274
     3
340
11
275
     0
280
     0
281
     0
282
     0
283
     0
284
     8
285
     0
286
     0
287
     3
288
     0
  0
ENDTAB
  0
TABLE
  2
BLOCK_RECORD
  5
1
330
0
100
AcDbSymbolTable
 70
     1
  0
BLOCK_RECORD
  5
1F
330
1
100
AcDbSymbolTableRecord
100
AcDbBlockTableRecord
  2
*MODEL_SPACE
  0
BLOCK_RECORD
  5
1B
330
1
100
AcDbSymbolTableRecord
100
AcDbBlockTableRecord
  2
*PAPER_SPACE
  0
ENDTAB
  0
ENDSEC
  0
SECTION
  2
BLOCKS
  0
BLOCK
  5
20
330
1F
100
AcDbEntity
  8
0
100
AcDbBlockBegin
  2
*MODEL_SPACE
 70
     0
 10
0.0
 20
0.0
 30
0.0
  3
*MODEL_SPACE
  1

  0
ENDBLK
  5
21
330
1F
100
AcDbEntity
  8
0
100
AcDbBlockEnd
  0
BLOCK
  5
1C
330
1B
100
AcDbEntity
 67
     1
  8
0
100
AcDbBlockBegin
  2
*PAPER_SPACE
  1

  0
ENDBLK
  5
1D
330
1B
100
AcDbEntity
 67
     1
  8
0
100
AcDbBlockEnd
  0
ENDSEC
  0
SECTION
  2
ENTITIES
  0
SPLINE
  5
100
100
AcDbEntity
  8
Layer_1
 62
1
100
AcDbSpline
 70
8
 71
3
 72
8
 73
4
 74
0
 40
0
 40
0
 40
0
 40
0
 40
1
 40
1
 40
1
 40
1
 10
11.536166
 20
5.984890
 30
0.0
 10
11.536166
 20
5.890602
 30
0.0
 10
11.533815
 20
5.796864
 30
0.0
 10
11.529168
 20
5.703730
 30
0.0
  0
SPLINE
  5
101
100
AcDbEntity
  8
Layer_1
 62
1
100
AcDbSpline
 70
8
 71
3
 72
8
 73
4
 74
0
 40
0
 40
0
 40
0
 40
0
 40
1
 40
1
 40
1
 40
1
 10
11.529168
 20
5.703730
 30
0.0
 10
11.524467
 20
5.609521
 30
0.0
 10
11.517417
 20
5.515931
 30
0.0
 10
11.508076
 20
5.423017
 30
0.0
  0
SPLINE
  5
102
100
AcDbEntity
  8
Layer_1
 62
1
100
AcDbSpline
 70
8
 71
3
 72
8
 73
4
 74
0
 40
0
 40
0
 40
0
 40
0
 40
1
 40
1
 40
1
 40
1
 10
11.508076
 20
5.423017
 30
0.0
 10
11.498656
 20
5.329324
 30
0.0
 10
11.486905
 20
5.236319
 30
0.0
 10
11.472883
 20
5.144060
 30
0.0
  0
SPLINE
  5
103
100
AcDbEntity
  8
Layer_1
 62
1
100
AcDbSpline
 70
8
 71
3
 72
8
 73
4
 74
0
 40
0
 40
0
 40
0
 40
0
 40
1
 40
1
 40
1
 40
1
 10
11.472883
 20
5.144060
 30
0.0
 10
11.458737
 20
5.050981
 30
0.0
 10
11.442279
 20
4.958662
 30
0.0
 10
11.423569
 20
4.867163
 30
0.0
  0
SPLINE
  5
104
100
AcDbEntity
  8
Layer_1
 62
1
100
AcDbSpline
 70
8
 71
3
 72
8
 73
4
 74
0
 40
0
 40
0
 40
0
 40
0
 40
1
 40
1
 40
1
 40
1
 10
11.423569
 20
4.867163
 30
0.0
 10
11.404723
 20
4.774999
 30
0.0
 10
11.383592
 20
4.683666
 30
0.0
 10
11.360239
 20
4.593228
 30
0.0
  0
SPLINE
  5
105
100
AcDbEntity
  8
Layer_1
 62
1
100
AcDbSpline
 70
8
 71
3
 72
8
 73
4
 74
0
 40
0
 40
0
 40
0
 40
0
 40
1
 40
1
 40
1
 40
1
 10
11.360239
 20
4.593228
 30
0.0
 10
11.336719
 20
4.502143
 30
0.0
 10
11.310944
 20
4.411965
 30
0.0
 10
11.282978
 20
4.322757
 30
0.0
  0
SPLINE
  5
106
100
AcDbEntity
  8
Layer_1
 62
1
100
AcDbSpline
 70
8
 71
3
 72
8
 73
4
 74
0
 40
0
 40
0
 40
0
 40
0
 40
1
 40
1
 40
1
 40
1
 10
11.282978
 20
4.322757
 30
0.0
 10
11.254870
 20
4.233096
 30
0.0
 10
11.224548
 20
4.144414
 30
0.0
 10
11.192076
 20
4.056776
 30
0.0
  0
SPLINE
  5
107
100
AcDbEntity
  8
Layer_1
 62
1
100
AcDbSpline
 70
8
 71
3
 72
8
 73
4
 74
0
 40
0
 40
0
 40
0
 40
0
 40
1
 40
1
 40
1
 40
1
 10
11.192076
 20
4.056776
 30
0.0
 10
11.159414
 20
3.968624
 30
0.0
 10
11.124577
 20
3.881528
 30
0.0
 10
11.087630
 20
3.795553
 30
0.0
  0
SPLINE
  5
108
100
AcDbEntity
  8
Layer_1
 62
1
100
AcDbSpline
 70
8
 71
3
 72
8
 73
4
 74
0
 40
0
 40
0
 40
0
 40
0
 40
1
 40
1
 40
1
 40
1
 10
11.087630
 20
3.795553
 30
0.0
 10
11.050513
 20
3.709181
 30
0.0
 10
11.011266
 20
3.623940
 30
0.0
 10
10.969956
 20
3.539896
 30
0.0
  0
SPLINE
  5
109
100
AcDbEntity
  8
Layer_1
 62
1
100
AcDbSpline
 70
8
 71
3
 72
8
 73
4
 74
0
 40
0
 40
0
 40
0
 40
0
 40
1
 40
1
 40
1
 40
1
 10
10.969956
 20
3.539896
 30
0.0
 10
10.928575
 20
3.455709
 30
0.0
 10
10.885124
 20
3.372724
 30
0.0
 10
10.839668
 20
3.291006
 30
0.0
  0
SPLINE
  5
10a
100
AcDbEntity
  8
Layer_1
 62
1
100
AcDbSpline
 70
8
 71
3
 72
8
 73
4
 74
0
 40
0
 40
0
 40
0
 40
0
 40
1
 40
1
 40
1
 40
1
 10
10.839668
 20
3.291006
 30
0.0
 10
10.794039
 20
3.208974
 30
0.0
 10
10.746389
 20
3.128220
 30
0.0
 10
10.696788
 20
3.048810
 30
0.0
  0
SPLINE
  5
10b
100
AcDbEntity
  8
Layer_1
 62
1
100
AcDbSpline
 70
8
 71
3
 72
8
 73
4
 74
0
 40
0
 40
0
 40
0
 40
0
 40
1
 40
1
 40
1
 40
1
 10
10.696788
 20
3.048810
 30
0.0
 10
10.647062
 20
2.969201
 30
0.0
 10
10.595374
 20
2.890944
 30
0.0
 10
10.541791
 20
2.814106
 30
0.0
  0
SPLINE
  5
10c
100
AcDbEntity
  8
Layer_1
 62
1
100
AcDbSpline
 70
8
 71
3
 72
8
 73
4
 74
0
 40
0
 40
0
 40
0
 40
0
 40
1
 40
1
 40
1
 40
1
 10
10.541791
 20
2.814106
 30
0.0
 10
10.488172
 20
2.737215
 30
0.0
 10
10.432656
 20
2.661746
 30
0.0
 10
10.375310
 20
2.587766
 30
0.0
  0
SPLINE
  5
10d
100
AcDbEntity
  8
Layer_1
 62
1
100
AcDbSpline
 70
8
 71
3
 72
8
 73
4
 74
0
 40
0
 40
0
 40
0
 40
0
 40
1
 40
1
 40
1
 40
1
 10
10.375310
 20
2.587766
 30
0.0
 10
10.317809
 20
2.513584
 30
0.0
 10
10.258469
 20
2.440899
 30
0.0
 10
10.197358
 20
2.369780
 30
0.0
  0
SPLINE
  5
10e
100
AcDbEntity
  8
Layer_1
 62
1
100
AcDbSpline
 70
8
 71
3
 72
8
 73
4
 74
0
 40
0
 40
0
 40
0
 40
0
 40
1
 40
1
 40
1
 40
1
 10
10.197358
 20
2.369780
 30
0.0
 10
10.136230
 20
2.298641
 30
0.0
 10
10.073329
 20
2.229068
 30
0.0
 10
10.008726
 20
2.161130
 30
0.0
  0
SPLINE
  5
10f
100
AcDbEntity
  8
Layer_1
 62
1
100
AcDbSpline
 70
8
 71
3
 72
8
 73
4
 74
0
 40
0
 40
0
 40
0
 40
0
 40
1
 40
1
 40
1
 40
1
 10
10.008726
 20
2.161130
 30
0.0
 10
9.944176
 20
2.093249
 30
0.0
 10
9.877927
 20
2.027000
 30
0.0
 10
9.810044
 20
1.962451
 30
0.0
  0
SPLINE
  5
110
100
AcDbEntity
  8
Layer_1
 62
1
100
AcDbSpline
 70
8
 71
3
 72
8
 73
4
 74
0
 40
0
 40
0
 40
0
 40
0
 40
1
 40
1
 40
1
 40
1
 10
9.810044
 20
1.962451
 30
0.0
 10
9.742122
 20
1.897864
 30
0.0
 10
9.672565
 20
1.834979
 30
0.0
 10
9.601443
 20
1.773865
 30
0.0
  0
SPLINE
  5
111
100
AcDbEntity
  8
Layer_1
 62
1
100
AcDbSpline
 70
8
 71
3
 72
8
 73
4
 74
0
 40
0
 40
0
 40
0
 40
0
 40
1
 40
1
 40
1
 40
1
 10
9.601443
 20
1.773865
 30
0.0
 10
9.530313
 20
1.712745
 30
0.0
 10
9.457618
 20
1.653396
 30
0.0
 10
9.383424
 20
1.595886
 30
0.0
  0
SPLINE
  5
112
100
AcDbEntity
  8
Layer_1
 62
1
100
AcDbSpline
 70
8
 71
3
 72
8
 73
4
 74
0
 40
0
 40
0
 40
0
 40
0
 40
1
 40
1
 40
1
 40
1
 10
9.383424
 20
1.595886
 30
0.0
 10
9.309394
 20
1.538503
 30
0.0
 10
9.233872
 20
1.482951
 30
0.0
 10
9.156927
 20
1.429299
 30
0.0
  0
SPLINE
  5
113
100
AcDbEntity
  8
Layer_1
 62
1
100
AcDbSpline
 70
8
 71
3
 72
8
 73
4
 74
0
 40
0
 40
0
 40
0
 40
0
 40
1
 40
1
 40
1
 40
1
 10
9.156927
 20
1.429299
 30
0.0
 10
9.080125
 20
1.375746
 30
0.0
 10
9.001906
 20
1.324086
 30
0.0
 10
8.922336
 20
1.274386
 30
0.0
  0
SPLINE
  5
114
100
AcDbEntity
  8
Layer_1
 62
1
100
AcDbSpline
 70
8
 71
3
 72
8
 73
4
 74
0
 40
0
 40
0
 40
0
 40
0
 40
1
 40
1
 40
1
 40
1
 10
8.922336
 20
1.274386
 30
0.0
 10
8.842912
 20
1.224778
 30
0.0
 10
8.762143
 20
1.177122
 30
0.0
 10
8.680095
 20
1.131486
 30
0.0
  0
SPLINE
  5
115
100
AcDbEntity
  8
Layer_1
 62
1
100
AcDbSpline
 70
8
 71
3
 72
8
 73
4
 74
0
 40
0
 40
0
 40
0
 40
0
 40
1
 40
1
 40
1
 40
1
 10
8.680095
 20
1.131486
 30
0.0
 10
8.598299
 20
1.085990
 30
0.0
 10
8.515233
 20
1.042502
 30
0.0
 10
8.430963
 20
1.001088
 30
0.0
  0
SPLINE
  5
116
100
AcDbEntity
  8
Layer_1
 62
1
100
AcDbSpline
 70
8
 71
3
 72
8
 73
4
 74
0
 40
0
 40
0
 40
0
 40
0
 40
1
 40
1
 40
1
 40
1
 10
8.430963
 20
1.001088
 30
0.0
 10
8.347051
 20
0.959850
 30
0.0
 10
8.261946
 20
0.920668
 30
0.0
 10
8.175713
 20
0.883610
 30
0.0
  0
SPLINE
  5
117
100
AcDbEntity
  8
Layer_1
 62
1
100
AcDbSpline
 70
8
 71
3
 72
8
 73
4
 74
0
 40
0
 40
0
 40
0
 40
0
 40
1
 40
1
 40
1
 40
1
 10
8.175713
 20
0.883610
 30
0.0
 10
8.089779
 20
0.846680
 30
0.0
 10
8.002725
 20
0.811857
 30
0.0
 10
7.914616
 20
0.779208
 30
0.0
  0
SPLINE
  5
118
100
AcDbEntity
  8
Layer_1
 62
1
100
AcDbSpline
 70
8
 71
3
 72
8
 73
4
 74
0
 40
0
 40
0
 40
0
 40
0
 40
1
 40
1
 40
1
 40
1
 10
7.914616
 20
0.779208
 30
0.0
 10
7.826928
 20
0.746714
 30
0.0
 10
7.738195
 20
0.716373
 30
0.0
 10
7.648482
 20
0.688248
 30
0.0
  0
SPLINE
  5
119
100
AcDbEntity
  8
Layer_1
 62
1
100
AcDbSpline
 70
8
 71
3
 72
8
 73
4
 74
0
 40
0
 40
0
 40
0
 40
0
 40
1
 40
1
 40
1
 40
1
 10
7.648482
 20
0.688248
 30
0.0
 10
7.559310
 20
0.660294
 30
0.0
 10
7.469170
 20
0.634528
 30
0.0
 10
7.378124
 20
0.611016
 30
0.0
  0
SPLINE
  5
11a
100
AcDbEntity
  8
Layer_1
 62
1
100
AcDbSpline
 70
8
 71
3
 72
8
 73
4
 74
0
 40
0
 40
0
 40
0
 40
0
 40
1
 40
1
 40
1
 40
1
 10
7.378124
 20
0.611016
 30
0.0
 10
7.287564
 20
0.587629
 30
0.0
 10
7.196108
 20
0.566471
 30
0.0
 10
7.103818
 20
0.547603
 30
0.0
  0
SPLINE
  5
11b
100
AcDbEntity
  8
Layer_1
 62
1
100
AcDbSpline
 70
8
 71
3
 72
8
 73
4
 74
0
 40
0
 40
0
 40
0
 40
0
 40
1
 40
1
 40
1
 40
1
 10
7.103818
 20
0.547603
 30
0.0
 10
7.012342
 20
0.528902
 30
0.0
 10
6.920045
 20
0.512451
 30
0.0
 10
6.826990
 20
0.498311
 30
0.0
  0
SPLINE
  5
11c
100
AcDbEntity
  8
Layer_1
 62
1
100
AcDbSpline
 70
8
 71
3
 72
8
 73
4
 74
0
 40
0
 40
0
 40
0
 40
0
 40
1
 40
1
 40
1
 40
1
 10
6.826990
 20
0.498311
 30
0.0
 10
6.734627
 20
0.484277
 30
0.0
 10
6.641515
 20
0.472519
 30
0.0
 10
6.547715
 20
0.463096
 30
0.0
  0
SPLINE
  5
11d
100
AcDbEntity
  8
Layer_1
 62
1
100
AcDbSpline
 70
8
 71
3
 72
8
 73
4
 74
0
 40
0
 40
0
 40
0
 40
0
 40
1
 40
1
 40
1
 40
1
 10
6.547715
 20
0.463096
 30
0.0
 10
6.454869
 20
0.453770
 30
0.0
 10
6.361349
 20
0.446732
 30
0.0
 10
6.267211
 20
0.442039
 30
0.0
  0
SPLINE
  5
11e
100
AcDbEntity
  8
Layer_1
 62
1
100
AcDbSpline
 70
8
 71
3
 72
8
 73
4
 74
0
 40
0
 40
0
 40
0
 40
0
 40
1
 40
1
 40
1
 40
1
 10
6.267211
 20
0.442039
 30
0.0
 10
6.174169
 20
0.437401
 30
0.0
 10
6.080524
 20
0.435055
 30
0.0
 10
5.986331
 20
0.435055
 30
0.0
  0
SPLINE
  5
11f
100
AcDbEntity
  8
Layer_1
 62
1
100
AcDbSpline
 70
8
 71
3
 72
8
 73
4
 74
0
 40
0
 40
0
 40
0
 40
0
 40
1
 40
1
 40
1
 40
1
 10
5.986331
 20
0.435055
 30
0.0
 10
5.892044
 20
0.435055
 30
0.0
 10
5.798305
 20
0.437406
 30
0.0
 10
5.705172
 20
0.442053
 30
0.0
  0
SPLINE
  5
120
100
AcDbEntity
  8
Layer_1
 62
1
100
AcDbSpline
 70
8
 71
3
 72
8
 73
4
 74
0
 40
0
 40
0
 40
0
 40
0
 40
1
 40
1
 40
1
 40
1
 10
5.705172
 20
0.442053
 30
0.0
 10
5.610963
 20
0.446754
 30
0.0
 10
5.517372
 20
0.453804
 30
0.0
 10
5.424458
 20
0.463145
 30
0.0
  0
SPLINE
  5
121
100
AcDbEntity
  8
Layer_1
 62
1
100
AcDbSpline
 70
8
 71
3
 72
8
 73
4
 74
0
 40
0
 40
0
 40
0
 40
0
 40
1
 40
1
 40
1
 40
1
 10
5.424458
 20
0.463145
 30
0.0
 10
5.330765
 20
0.472565
 30
0.0
 10
5.237760
 20
0.484316
 30
0.0
 10
5.145501
 20
0.498338
 30
0.0
  0
SPLINE
  5
122
100
AcDbEntity
  8
Layer_1
 62
1
100
AcDbSpline
 70
8
 71
3
 72
8
 73
4
 74
0
 40
0
 40
0
 40
0
 40
0
 40
1
 40
1
 40
1
 40
1
 10
5.145501
 20
0.498338
 30
0.0
 10
5.052422
 20
0.512484
 30
0.0
 10
4.960103
 20
0.528942
 30
0.0
 10
4.868604
 20
0.547652
 30
0.0
  0
SPLINE
  5
123
100
AcDbEntity
  8
Layer_1
 62
1
100
AcDbSpline
 70
8
 71
3
 72
8
 73
4
 74
0
 40
0
 40
0
 40
0
 40
0
 40
1
 40
1
 40
1
 40
1
 10
4.868604
 20
0.547652
 30
0.0
 10
4.776439
 20
0.566499
 30
0.0
 10
4.685107
 20
0.587629
 30
0.0
 10
4.594668
 20
0.610982
 30
0.0
  0
SPLINE
  5
124
100
AcDbEntity
  8
Layer_1
 62
1
100
AcDbSpline
 70
8
 71
3
 72
8
 73
4
 74
0
 40
0
 40
0
 40
0
 40
0
 40
1
 40
1
 40
1
 40
1
 10
4.594668
 20
0.610982
 30
0.0
 10
4.503584
 20
0.634502
 30
0.0
 10
4.413406
 20
0.660277
 30
0.0
 10
4.324198
 20
0.688243
 30
0.0
  0
SPLINE
  5
125
100
AcDbEntity
  8
Layer_1
 62
1
100
AcDbSpline
 70
8
 71
3
 72
8
 73
4
 74
0
 40
0
 40
0
 40
0
 40
0
 40
1
 40
1
 40
1
 40
1
 10
4.324198
 20
0.688243
 30
0.0
 10
4.234536
 20
0.716351
 30
0.0
 10
4.145855
 20
0.746673
 30
0.0
 10
4.058216
 20
0.779145
 30
0.0
  0
SPLINE
  5
126
100
AcDbEntity
  8
Layer_1
 62
1
100
AcDbSpline
 70
8
 71
3
 72
8
 73
4
 74
0
 40
0
 40
0
 40
0
 40
0
 40
1
 40
1
 40
1
 40
1
 10
4.058216
 20
0.779145
 30
0.0
 10
3.970064
 20
0.811807
 30
0.0
 10
3.882968
 20
0.846644
 30
0.0
 10
3.796993
 20
0.883591
 30
0.0
  0
SPLINE
  5
127
100
AcDbEntity
  8
Layer_1
 62
1
100
AcDbSpline
 70
8
 71
3
 72
8
 73
4
 74
0
 40
0
 40
0
 40
0
 40
0
 40
1
 40
1
 40
1
 40
1
 10
3.796993
 20
0.883591
 30
0.0
 10
3.710621
 20
0.920709
 30
0.0
 10
3.625380
 20
0.959956
 30
0.0
 10
3.541337
 20
1.001266
 30
0.0
  0
SPLINE
  5
128
100
AcDbEntity
  8
Layer_1
 62
1
100
AcDbSpline
 70
8
 71
3
 72
8
 73
4
 74
0
 40
0
 40
0
 40
0
 40
0
 40
1
 40
1
 40
1
 40
1
 10
3.541337
 20
1.001266
 30
0.0
 10
3.457150
 20
1.042647
 30
0.0
 10
3.374164
 20
1.086098
 30
0.0
 10
3.292446
 20
1.131553
 30
0.0
  0
SPLINE
  5
129
100
AcDbEntity
  8
Layer_1
 62
1
100
AcDbSpline
 70
8
 71
3
 72
8
 73
4
 74
0
 40
0
 40
0
 40
0
 40
0
 40
1
 40
1
 40
1
 40
1
 10
3.292446
 20
1.131553
 30
0.0
 10
3.210414
 20
1.177183
 30
0.0
 10
3.129660
 20
1.224832
 30
0.0
 10
3.050251
 20
1.274434
 30
0.0
  0
SPLINE
  5
12a
100
AcDbEntity
  8
Layer_1
 62
1
100
AcDbSpline
 70
8
 71
3
 72
8
 73
4
 74
0
 40
0
 40
0
 40
0
 40
0
 40
1
 40
1
 40
1
 40
1
 10
3.050251
 20
1.274434
 30
0.0
 10
2.970642
 20
1.324160
 30
0.0
 10
2.892385
 20
1.375848
 30
0.0
 10
2.815546
 20
1.429431
 30
0.0
  0
SPLINE
  5
12b
100
AcDbEntity
  8
Layer_1
 62
1
100
AcDbSpline
 70
8
 71
3
 72
8
 73
4
 74
0
 40
0
 40
0
 40
0
 40
0
 40
1
 40
1
 40
1
 40
1
 10
2.815546
 20
1.429431
 30
0.0
 10
2.738656
 20
1.483050
 30
0.0
 10
2.663186
 20
1.538566
 30
0.0
 10
2.589206
 20
1.595911
 30
0.0
  0
SPLINE
  5
12c
100
AcDbEntity
  8
Layer_1
 62
1
100
AcDbSpline
 70
8
 71
3
 72
8
 73
4
 74
0
 40
0
 40
0
 40
0
 40
0
 40
1
 40
1
 40
1
 40
1
 10
2.589206
 20
1.595911
 30
0.0
 10
2.515024
 20
1.653413
 30
0.0
 10
2.442340
 20
1.712753
 30
0.0
 10
2.371221
 20
1.773864
 30
0.0
  0
SPLINE
  5
12d
100
AcDbEntity
  8
Layer_1
 62
1
100
AcDbSpline
 70
8
 71
3
 72
8
 73
4
 74
0
 40
0
 40
0
 40
0
 40
0
 40
1
 40
1
 40
1
 40
1
 10
2.371221
 20
1.773864
 30
0.0
 10
2.300081
 20
1.834992
 30
0.0
 10
2.230509
 20
1.897893
 30
0.0
 10
2.162571
 20
1.962496
 30
0.0
  0
SPLINE
  5
12e
100
AcDbEntity
  8
Layer_1
 62
1
100
AcDbSpline
 70
8
 71
3
 72
8
 73
4
 74
0
 40
0
 40
0
 40
0
 40
0
 40
1
 40
1
 40
1
 40
1
 10
2.162571
 20
1.962496
 30
0.0
 10
2.094689
 20
2.027046
 30
0.0
 10
2.028440
 20
2.093295
 30
0.0
 10
1.963891
 20
2.161178
 30
0.0
  0
SPLINE
  5
12f
100
AcDbEntity
  8
Layer_1
 62
1
100
AcDbSpline
 70
8
 71
3
 72
8
 73
4
 74
0
 40
0
 40
0
 40
0
 40
0
 40
1
 40
1
 40
1
 40
1
 10
1.963891
 20
2.161178
 30
0.0
 10
1.899304
 20
2.229100
 30
0.0
 10
1.836419
 20
2.298657
 30
0.0
 10
1.775306
 20
2.369779
 30
0.0
  0
SPLINE
  5
130
100
AcDbEntity
  8
Layer_1
 62
1
100
AcDbSpline
 70
8
 71
3
 72
8
 73
4
 74
0
 40
0
 40
0
 40
0
 40
0
 40
1
 40
1
 40
1
 40
1
 10
1.775306
 20
2.369779
 30
0.0
 10
1.714185
 20
2.440909
 30
0.0
 10
1.654836
 20
2.513604
 30
0.0
 10
1.597327
 20
2.587798
 30
0.0
  0
SPLINE
  5
131
100
AcDbEntity
  8
Layer_1
 62
1
100
AcDbSpline
 70
8
 71
3
 72
8
 73
4
 74
0
 40
0
 40
0
 40
0
 40
0
 40
1
 40
1
 40
1
 40
1
 10
1.597327
 20
2.587798
 30
0.0
 10
1.539944
 20
2.661828
 30
0.0
 10
1.484392
 20
2.737350
 30
0.0
 10
1.430740
 20
2.814295
 30
0.0
  0
SPLINE
  5
132
100
AcDbEntity
  8
Layer_1
 62
1
100
AcDbSpline
 70
8
 71
3
 72
8
 73
4
 74
0
 40
0
 40
0
 40
0
 40
0
 40
1
 40
1
 40
1
 40
1
 10
1.430740
 20
2.814295
 30
0.0
 10
1.377187
 20
2.891097
 30
0.0
 10
1.325527
 20
2.969317
 30
0.0
 10
1.275827
 20
3.048886
 30
0.0
  0
SPLINE
  5
133
100
AcDbEntity
  8
Layer_1
 62
1
100
AcDbSpline
 70
8
 71
3
 72
8
 73
4
 74
0
 40
0
 40
0
 40
0
 40
0
 40
1
 40
1
 40
1
 40
1
 10
1.275827
 20
3.048886
 30
0.0
 10
1.226218
 20
3.128310
 30
0.0
 10
1.178563
 20
3.209080
 30
0.0
 10
1.132927
 20
3.291127
 30
0.0
  0
SPLINE
  5
134
100
AcDbEntity
  8
Layer_1
 62
1
100
AcDbSpline
 70
8
 71
3
 72
8
 73
4
 74
0
 40
0
 40
0
 40
0
 40
0
 40
1
 40
1
 40
1
 40
1
 10
1.132927
 20
3.291127
 30
0.0
 10
1.087431
 20
3.372923
 30
0.0
 10
1.043943
 20
3.455989
 30
0.0
 10
1.002529
 20
3.540259
 30
0.0
  0
SPLINE
  5
135
100
AcDbEntity
  8
Layer_1
 62
1
100
AcDbSpline
 70
8
 71
3
 72
8
 73
4
 74
0
 40
0
 40
0
 40
0
 40
0
 40
1
 40
1
 40
1
 40
1
 10
1.002529
 20
3.540259
 30
0.0
 10
0.961291
 20
3.624171
 30
0.0
 10
0.922110
 20
3.709276
 30
0.0
 10
0.885051
 20
3.795509
 30
0.0
  0
SPLINE
  5
136
100
AcDbEntity
  8
Layer_1
 62
1
100
AcDbSpline
 70
8
 71
3
 72
8
 73
4
 74
0
 40
0
 40
0
 40
0
 40
0
 40
1
 40
1
 40
1
 40
1
 10
0.885051
 20
3.795509
 30
0.0
 10
0.848121
 20
3.881443
 30
0.0
 10
0.813299
 20
3.968497
 30
0.0
 10
0.780649
 20
4.056606
 30
0.0
  0
SPLINE
  5
137
100
AcDbEntity
  8
Layer_1
 62
1
100
AcDbSpline
 70
8
 71
3
 72
8
 73
4
 74
0
 40
0
 40
0
 40
0
 40
0
 40
1
 40
1
 40
1
 40
1
 10
0.780649
 20
4.056606
 30
0.0
 10
0.748156
 20
4.144294
 30
0.0
 10
0.717815
 20
4.233027
 30
0.0
 10
0.689690
 20
4.322740
 30
0.0
  0
SPLINE
  5
138
100
AcDbEntity
  8
Layer_1
 62
1
100
AcDbSpline
 70
8
 71
3
 72
8
 73
4
 74
0
 40
0
 40
0
 40
0
 40
0
 40
1
 40
1
 40
1
 40
1
 10
0.689690
 20
4.322740
 30
0.0
 10
0.661735
 20
4.411912
 30
0.0
 10
0.635970
 20
4.502052
 30
0.0
 10
0.612457
 20
4.593098
 30
0.0
  0
SPLINE
  5
139
100
AcDbEntity
  8
Layer_1
 62
1
100
AcDbSpline
 70
8
 71
3
 72
8
 73
4
 74
0
 40
0
 40
0
 40
0
 40
0
 40
1
 40
1
 40
1
 40
1
 10
0.612457
 20
4.593098
 30
0.0
 10
0.589070
 20
4.683657
 30
0.0
 10
0.567912
 20
4.775113
 30
0.0
 10
0.549045
 20
4.867403
 30
0.0
  0
SPLINE
  5
13a
100
AcDbEntity
  8
Layer_1
 62
1
100
AcDbSpline
 70
8
 71
3
 72
8
 73
4
 74
0
 40
0
 40
0
 40
0
 40
0
 40
1
 40
1
 40
1
 40
1
 10
0.549045
 20
4.867403
 30
0.0
 10
0.530344
 20
4.958880
 30
0.0
 10
0.513893
 20
5.051176
 30
0.0
 10
0.499753
 20
5.144231
 30
0.0
  0
SPLINE
  5
13b
100
AcDbEntity
  8
Layer_1
 62
1
100
AcDbSpline
 70
8
 71
3
 72
8
 73
4
 74
0
 40
0
 40
0
 40
0
 40
0
 40
1
 40
1
 40
1
 40
1
 10
0.499753
 20
5.144231
 30
0.0
 10
0.485718
 20
5.236595
 30
0.0
 10
0.473960
 20
5.329706
 30
0.0
 10
0.464538
 20
5.423506
 30
0.0
  0
SPLINE
  5
13c
100
AcDbEntity
  8
Layer_1
 62
1
100
AcDbSpline
 70
8
 71
3
 72
8
 73
4
 74
0
 40
0
 40
0
 40
0
 40
0
 40
1
 40
1
 40
1
 40
1
 10
0.464538
 20
5.423506
 30
0.0
 10
0.455211
 20
5.516352
 30
0.0
 10
0.448173
 20
5.609873
 30
0.0
 10
0.443481
 20
5.704011
 30
0.0
  0
SPLINE
  5
13d
100
AcDbEntity
  8
Layer_1
 62
1
100
AcDbSpline
 70
8
 71
3
 72
8
 73
4
 74
0
 40
0
 40
0
 40
0
 40
0
 40
1
 40
1
 40
1
 40
1
 10
0.443481
 20
5.704011
 30
0.0
 10
0.438843
 20
5.797052
 30
0.0
 10
0.436496
 20
5.890697
 30
0.0
 10
0.436496
 20
5.984890
 30
0.0
  0
SPLINE
  5
13e
100
AcDbEntity
  8
Layer_1
 62
1
100
AcDbSpline
 70
8
 71
3
 72
8
 73
4
 74
0
 40
0
 40
0
 40
0
 40
0
 40
1
 40
1
 40
1
 40
1
 10
0.436496
 20
5.984890
 30
0.0
 10
0.436496
 20
6.079177
 30
0.0
 10
0.438847
 20
6.172915
 30
0.0
 10
0.443495
 20
6.266049
 30
0.0
  0
SPLINE
  5
13f
100
AcDbEntity
  8
Layer_1
 62
1
100
AcDbSpline
 70
8
 71
3
 72
8
 73
4
 74
0
 40
0
 40
0
 40
0
 40
0
 40
1
 40
1
 40
1
 40
1
 10
0.443495
 20
6.266049
 30
0.0
 10
0.448195
 20
6.360258
 30
0.0
 10
0.455245
 20
6.453849
 30
0.0
 10
0.464587
 20
6.546763
 30
0.0
  0
SPLINE
  5
140
100
AcDbEntity
  8
Layer_1
 62
1
100
AcDbSpline
 70
8
 71
3
 72
8
 73
4
 74
0
 40
0
 40
0
 40
0
 40
0
 40
1
 40
1
 40
1
 40
1
 10
0.464587
 20
6.546763
 30
0.0
 10
0.474007
 20
6.640456
 30
0.0
 10
0.485757
 20
6.733461
 30
0.0
 10
0.499779
 20
6.825720
 30
0.0
  0
SPLINE
  5
141
100
AcDbEntity
  8
Layer_1
 62
1
100
AcDbSpline
 70
8
 71
3
 72
8
 73
4
 74
0
 40
0
 40
0
 40
0
 40
0
 40
1
 40
1
 40
1
 40
1
 10
0.499779
 20
6.825720
 30
0.0
 10
0.513925
 20
6.918799
 30
0.0
 10
0.530384
 20
7.011118
 30
0.0
 10
0.549094
 20
7.102618
 30
0.0
  0
SPLINE
  5
142
100
AcDbEntity
  8
Layer_1
 62
1
100
AcDbSpline
 70
8
 71
3
 72
8
 73
4
 74
0
 40
0
 40
0
 40
0
 40
0
 40
1
 40
1
 40
1
 40
1
 10
0.549094
 20
7.102618
 30
0.0
 10
0.567940
 20
7.194782
 30
0.0
 10
0.589070
 20
7.286114
 30
0.0
 10
0.612424
 20
7.376553
 30
0.0
  0
SPLINE
  5
143
100
AcDbEntity
  8
Layer_1
 62
1
100
AcDbSpline
 70
8
 71
3
 72
8
 73
4
 74
0
 40
0
 40
0
 40
0
 40
0
 40
1
 40
1
 40
1
 40
1
 10
0.612424
 20
7.376553
 30
0.0
 10
0.635944
 20
7.467637
 30
0.0
 10
0.661718
 20
7.557815
 30
0.0
 10
0.689685
 20
7.647024
 30
0.0
  0
SPLINE
  5
144
100
AcDbEntity
  8
Layer_1
 62
1
100
AcDbSpline
 70
8
 71
3
 72
8
 73
4
 74
0
 40
0
 40
0
 40
0
 40
0
 40
1
 40
1
 40
1
 40
1
 10
0.689685
 20
7.647024
 30
0.0
 10
0.717793
 20
7.736685
 30
0.0
 10
0.748115
 20
7.825367
 30
0.0
 10
0.780586
 20
7.913005
 30
0.0
  0
SPLINE
  5
145
100
AcDbEntity
  8
Layer_1
 62
1
100
AcDbSpline
 70
8
 71
3
 72
8
 73
4
 74
0
 40
0
 40
0
 40
0
 40
0
 40
1
 40
1
 40
1
 40
1
 10
0.780586
 20
7.913005
 30
0.0
 10
0.813248
 20
8.001157
 30
0.0
 10
0.848085
 20
8.088253
 30
0.0
 10
0.885032
 20
8.174228
 30
0.0
  0
SPLINE
  5
146
100
AcDbEntity
  8
Layer_1
 62
1
100
AcDbSpline
 70
8
 71
3
 72
8
 73
4
 74
0
 40
0
 40
0
 40
0
 40
0
 40
1
 40
1
 40
1
 40
1
 10
0.885032
 20
8.174228
 30
0.0
 10
0.922150
 20
8.260600
 30
0.0
 10
0.961397
 20
8.345841
 30
0.0
 10
1.002707
 20
8.429885
 30
0.0
  0
SPLINE
  5
147
100
AcDbEntity
  8
Layer_1
 62
1
100
AcDbSpline
 70
8
 71
3
 72
8
 73
4
 74
0
 40
0
 40
0
 40
0
 40
0
 40
1
 40
1
 40
1
 40
1
 10
1.002707
 20
8.429885
 30
0.0
 10
1.044088
 20
8.514072
 30
0.0
 10
1.087539
 20
8.597058
 30
0.0
 10
1.132994
 20
8.678775
 30
0.0
  0
SPLINE
  5
148
100
AcDbEntity
  8
Layer_1
 62
1
100
AcDbSpline
 70
8
 71
3
 72
8
 73
4
 74
0
 40
0
 40
0
 40
0
 40
0
 40
1
 40
1
 40
1
 40
1
 10
1.132994
 20
8.678775
 30
0.0
 10
1.178624
 20
8.760807
 30
0.0
 10
1.226273
 20
8.841562
 30
0.0
 10
1.275875
 20
8.920971
 30
0.0
  0
SPLINE
  5
149
100
AcDbEntity
  8
Layer_1
 62
1
100
AcDbSpline
 70
8
 71
3
 72
8
 73
4
 74
0
 40
0
 40
0
 40
0
 40
0
 40
1
 40
1
 40
1
 40
1
 10
1.275875
 20
8.920971
 30
0.0
 10
1.325601
 20
9.000580
 30
0.0
 10
1.377289
 20
9.078837
 30
0.0
 10
1.430872
 20
9.155675
 30
0.0
  0
SPLINE
  5
14a
100
AcDbEntity
  8
Layer_1
 62
1
100
AcDbSpline
 70
8
 71
3
 72
8
 73
4
 74
0
 40
0
 40
0
 40
0
 40
0
 40
1
 40
1
 40
1
 40
1
 10
1.430872
 20
9.155675
 30
0.0
 10
1.484491
 20
9.232566
 30
0.0
 10
1.540007
 20
9.308036
 30
0.0
 10
1.597352
 20
9.382016
 30
0.0
  0
SPLINE
  5
14b
100
AcDbEntity
  8
Layer_1
 62
1
100
AcDbSpline
 70
8
 71
3
 72
8
 73
4
 74
0
 40
0
 40
0
 40
0
 40
0
 40
1
 40
1
 40
1
 40
1
 10
1.597352
 20
9.382016
 30
0.0
 10
1.654853
 20
9.456198
 30
0.0
 10
1.714194
 20
9.528882
 30
0.0
 10
1.775305
 20
9.600001
 30
0.0
  0
SPLINE
  5
14c
100
AcDbEntity
  8
Layer_1
 62
1
100
AcDbSpline
 70
8
 71
3
 72
8
 73
4
 74
0
 40
0
 40
0
 40
0
 40
0
 40
1
 40
1
 40
1
 40
1
 10
1.775305
 20
9.600001
 30
0.0
 10
1.836433
 20
9.671141
 30
0.0
 10
1.899333
 20
9.740714
 30
0.0
 10
1.963937
 20
9.808652
 30
0.0
  0
SPLINE
  5
14d
100
AcDbEntity
  8
Layer_1
 62
1
100
AcDbSpline
 70
8
 71
3
 72
8
 73
4
 74
0
 40
0
 40
0
 40
0
 40
0
 40
1
 40
1
 40
1
 40
1
 10
1.963937
 20
9.808652
 30
0.0
 10
2.028486
 20
9.876533
 30
0.0
 10
2.094736
 20
9.942782
 30
0.0
 10
2.162618
 20
10.007331
 30
0.0
  0
SPLINE
  5
14e
100
AcDbEntity
  8
Layer_1
 62
1
100
AcDbSpline
 70
8
 71
3
 72
8
 73
4
 74
0
 40
0
 40
0
 40
0
 40
0
 40
1
 40
1
 40
1
 40
1
 10
2.162618
 20
10.007331
 30
0.0
 10
2.230541
 20
10.071918
 30
0.0
 10
2.300097
 20
10.134803
 30
0.0
 10
2.371220
 20
10.195917
 30
0.0
  0
SPLINE
  5
14f
100
AcDbEntity
  8
Layer_1
 62
1
100
AcDbSpline
 70
8
 71
3
 72
8
 73
4
 74
0
 40
0
 40
0
 40
0
 40
0
 40
1
 40
1
 40
1
 40
1
 10
2.371220
 20
10.195917
 30
0.0
 10
2.442349
 20
10.257037
 30
0.0
 10
2.515045
 20
10.316386
 30
0.0
 10
2.589238
 20
10.373896
 30
0.0
  0
SPLINE
  5
150
100
AcDbEntity
  8
Layer_1
 62
1
100
AcDbSpline
 70
8
 71
3
 72
8
 73
4
 74
0
 40
0
 40
0
 40
0
 40
0
 40
1
 40
1
 40
1
 40
1
 10
2.589238
 20
10.373896
 30
0.0
 10
2.663269
 20
10.431279
 30
0.0
 10
2.738791
 20
10.486831
 30
0.0
 10
2.815735
 20
10.540483
 30
0.0
  0
SPLINE
  5
151
100
AcDbEntity
  8
Layer_1
 62
1
100
AcDbSpline
 70
8
 71
3
 72
8
 73
4
 74
0
 40
0
 40
0
 40
0
 40
0
 40
1
 40
1
 40
1
 40
1
 10
2.815735
 20
10.540483
 30
0.0
 10
2.892537
 20
10.594036
 30
0.0
 10
2.970757
 20
10.645696
 30
0.0
 10
3.050327
 20
10.695396
 30
0.0
  0
SPLINE
  5
152
100
AcDbEntity
  8
Layer_1
 62
1
100
AcDbSpline
 70
8
 71
3
 72
8
 73
4
 74
0
 40
0
 40
0
 40
0
 40
0
 40
1
 40
1
 40
1
 40
1
 10
3.050327
 20
10.695396
 30
0.0
 10
3.129751
 20
10.745005
 30
0.0
 10
3.210520
 20
10.792660
 30
0.0
 10
3.292567
 20
10.838296
 30
0.0
  0
SPLINE
  5
153
100
AcDbEntity
  8
Layer_1
 62
1
100
AcDbSpline
 70
8
 71
3
 72
8
 73
4
 74
0
 40
0
 40
0
 40
0
 40
0
 40
1
 40
1
 40
1
 40
1
 10
3.292567
 20
10.838296
 30
0.0
 10
3.374363
 20
10.883792
 30
0.0
 10
3.457429
 20
10.927281
 30
0.0
 10
3.541699
 20
10.968694
 30
0.0
  0
SPLINE
  5
154
100
AcDbEntity
  8
Layer_1
 62
1
100
AcDbSpline
 70
8
 71
3
 72
8
 73
4
 74
0
 40
0
 40
0
 40
0
 40
0
 40
1
 40
1
 40
1
 40
1
 10
3.541699
 20
10.968694
 30
0.0
 10
3.625611
 20
11.009932
 30
0.0
 10
3.710717
 20
11.049114
 30
0.0
 10
3.796950
 20
11.086172
 30
0.0
  0
SPLINE
  5
155
100
AcDbEntity
  8
Layer_1
 62
1
100
AcDbSpline
 70
8
 71
3
 72
8
 73
4
 74
0
 40
0
 40
0
 40
0
 40
0
 40
1
 40
1
 40
1
 40
1
 10
3.796950
 20
11.086172
 30
0.0
 10
3.882884
 20
11.123103
 30
0.0
 10
3.969938
 20
11.157925
 30
0.0
 10
4.058047
 20
11.190574
 30
0.0
  0
SPLINE
  5
156
100
AcDbEntity
  8
Layer_1
 62
1
100
AcDbSpline
 70
8
 71
3
 72
8
 73
4
 74
0
 40
0
 40
0
 40
0
 40
0
 40
1
 40
1
 40
1
 40
1
 10
4.058047
 20
11.190574
 30
0.0
 10
4.145735
 20
11.223068
 30
0.0
 10
4.234468
 20
11.253409
 30
0.0
 10
4.324181
 20
11.281534
 30
0.0
  0
SPLINE
  5
157
100
AcDbEntity
  8
Layer_1
 62
1
100
AcDbSpline
 70
8
 71
3
 72
8
 73
4
 74
0
 40
0
 40
0
 40
0
 40
0
 40
1
 40
1
 40
1
 40
1
 10
4.324181
 20
11.281534
 30
0.0
 10
4.413352
 20
11.309489
 30
0.0
 10
4.503492
 20
11.335254
 30
0.0
 10
4.594538
 20
11.358766
 30
0.0
  0
SPLINE
  5
158
100
AcDbEntity
  8
Layer_1
 62
1
100
AcDbSpline
 70
8
 71
3
 72
8
 73
4
 74
0
 40
0
 40
0
 40
0
 40
0
 40
1
 40
1
 40
1
 40
1
 10
4.594538
 20
11.358766
 30
0.0
 10
4.685098
 20
11.382153
 30
0.0
 10
4.776554
 20
11.403311
 30
0.0
 10
4.868844
 20
11.422179
 30
0.0
  0
SPLINE
  5
159
100
AcDbEntity
  8
Layer_1
 62
1
100
AcDbSpline
 70
8
 71
3
 72
8
 73
4
 74
0
 40
0
 40
0
 40
0
 40
0
 40
1
 40
1
 40
1
 40
1
 10
4.868844
 20
11.422179
 30
0.0
 10
4.960321
 20
11.440880
 30
0.0
 10
5.052617
 20
11.457331
 30
0.0
 10
5.145672
 20
11.471471
 30
0.0
  0
SPLINE
  5
15a
100
AcDbEntity
  8
Layer_1
 62
1
100
AcDbSpline
 70
8
 71
3
 72
8
 73
4
 74
0
 40
0
 40
0
 40
0
 40
0
 40
1
 40
1
 40
1
 40
1
 10
5.145672
 20
11.471471
 30
0.0
 10
5.238036
 20
11.485505
 30
0.0
 10
5.331147
 20
11.497264
 30
0.0
 10
5.424947
 20
11.506686
 30
0.0
  0
SPLINE
  5
15b
100
AcDbEntity
  8
Layer_1
 62
1
100
AcDbSpline
 70
8
 71
3
 72
8
 73
4
 74
0
 40
0
 40
0
 40
0
 40
0
 40
1
 40
1
 40
1
 40
1
 10
5.424947
 20
11.506686
 30
0.0
 10
5.517793
 20
11.516013
 30
0.0
 10
5.611314
 20
11.523051
 30
0.0
 10
5.705452
 20
11.527743
 30
0.0
  0
SPLINE
  5
15c
100
AcDbEntity
  8
Layer_1
 62
1
100
AcDbSpline
 70
8
 71
3
 72
8
 73
4
 74
0
 40
0
 40
0
 40
0
 40
0
 40
1
 40
1
 40
1
 40
1
 10
5.705452
 20
11.527743
 30
0.0
 10
5.798494
 20
11.532381
 30
0.0
 10
5.892138
 20
11.534728
 30
0.0
 10
5.986331
 20
11.534728
 30
0.0
  0
SPLINE
  5
15d
100
AcDbEntity
  8
Layer_1
 62
1
100
AcDbSpline
 70
8
 71
3
 72
8
 73
4
 74
0
 40
0
 40
0
 40
0
 40
0
 40
1
 40
1
 40
1
 40
1
 10
5.986331
 20
11.534728
 30
0.0
 10
6.080619
 20
11.534728
 30
0.0
 10
6.174357
 20
11.532376
 30
0.0
 10
6.267491
 20
11.527729
 30
0.0
  0
SPLINE
  5
15e
100
AcDbEntity
  8
Layer_1
 62
1
100
AcDbSpline
 70
8
 71
3
 72
8
 73
4
 74
0
 40
0
 40
0
 40
0
 40
0
 40
1
 40
1
 40
1
 40
1
 10
6.267491
 20
11.527729
 30
0.0
 10
6.361700
 20
11.523028
 30
0.0
 10
6.455290
 20
11.515978
 30
0.0
 10
6.548205
 20
11.506637
 30
0.0
  0
SPLINE
  5
15f
100
AcDbEntity
  8
Layer_1
 62
1
100
AcDbSpline
 70
8
 71
3
 72
8
 73
4
 74
0
 40
0
 40
0
 40
0
 40
0
 40
1
 40
1
 40
1
 40
1
 10
6.548205
 20
11.506637
 30
0.0
 10
6.641897
 20
11.497217
 30
0.0
 10
6.734903
 20
11.485466
 30
0.0
 10
6.827162
 20
11.471445
 30
0.0
  0
SPLINE
  5
160
100
AcDbEntity
  8
Layer_1
 62
1
100
AcDbSpline
 70
8
 71
3
 72
8
 73
4
 74
0
 40
0
 40
0
 40
0
 40
0
 40
1
 40
1
 40
1
 40
1
 10
6.827162
 20
11.471445
 30
0.0
 10
6.920241
 20
11.457298
 30
0.0
 10
7.012560
 20
11.440840
 30
0.0
 10
7.104059
 20
11.422130
 30
0.0
  0
SPLINE
  5
161
100
AcDbEntity
  8
Layer_1
 62
1
100
AcDbSpline
 70
8
 71
3
 72
8
 73
4
 74
0
 40
0
 40
0
 40
0
 40
0
 40
1
 40
1
 40
1
 40
1
 10
7.104059
 20
11.422130
 30
0.0
 10
7.196223
 20
11.403284
 30
0.0
 10
7.287556
 20
11.382153
 30
0.0
 10
7.377994
 20
11.358800
 30
0.0
  0
SPLINE
  5
162
100
AcDbEntity
  8
Layer_1
 62
1
100
AcDbSpline
 70
8
 71
3
 72
8
 73
4
 74
0
 40
0
 40
0
 40
0
 40
0
 40
1
 40
1
 40
1
 40
1
 10
7.377994
 20
11.358800
 30
0.0
 10
7.469079
 20
11.335280
 30
0.0
 10
7.559257
 20
11.309505
 30
0.0
 10
7.648465
 20
11.281539
 30
0.0
  0
SPLINE
  5
163
100
AcDbEntity
  8
Layer_1
 62
1
100
AcDbSpline
 70
8
 71
3
 72
8
 73
4
 74
0
 40
0
 40
0
 40
0
 40
0
 40
1
 40
1
 40
1
 40
1
 10
7.648465
 20
11.281539
 30
0.0
 10
7.738126
 20
11.253431
 30
0.0
 10
7.826808
 20
11.223109
 30
0.0
 10
7.914446
 20
11.190637
 30
0.0
  0
SPLINE
  5
164
100
AcDbEntity
  8
Layer_1
 62
1
100
AcDbSpline
 70
8
 71
3
 72
8
 73
4
 74
0
 40
0
 40
0
 40
0
 40
0
 40
1
 40
1
 40
1
 40
1
 10
7.914446
 20
11.190637
 30
0.0
 10
8.002598
 20
11.157975
 30
0.0
 10
8.089694
 20
11.123138
 30
0.0
 10
8.175670
 20
11.086191
 30
0.0
  0
SPLINE
  5
165
100
AcDbEntity
  8
Layer_1
 62
1
100
AcDbSpline
 70
8
 71
3
 72
8
 73
4
 74
0
 40
0
 40
0
 40
0
 40
0
 40
1
 40
1
 40
1
 40
1
 10
8.175670
 20
11.086191
 30
0.0
 10
8.262042
 20
11.049073
 30
0.0
 10
8.347282
 20
11.009827
 30
0.0
 10
8.431326
 20
10.968516
 30
0.0
  0
SPLINE
  5
166
100
AcDbEntity
  8
Layer_1
 62
1
100
AcDbSpline
 70
8
 71
3
 72
8
 73
4
 74
0
 40
0
 40
0
 40
0
 40
0
 40
1
 40
1
 40
1
 40
1
 10
8.431326
 20
10.968516
 30
0.0
 10
8.515513
 20
10.927135
 30
0.0
 10
8.598498
 20
10.883684
 30
0.0
 10
8.680216
 20
10.838229
 30
0.0
  0
SPLINE
  5
167
100
AcDbEntity
  8
Layer_1
 62
1
100
AcDbSpline
 70
8
 71
3
 72
8
 73
4
 74
0
 40
0
 40
0
 40
0
 40
0
 40
1
 40
1
 40
1
 40
1
 10
8.680216
 20
10.838229
 30
0.0
 10
8.762248
 20
10.792599
 30
0.0
 10
8.843002
 20
10.744950
 30
0.0
 10
8.922412
 20
10.695348
 30
0.0
  0
SPLINE
  5
168
100
AcDbEntity
  8
Layer_1
 62
1
100
AcDbSpline
 70
8
 71
3
 72
8
 73
4
 74
0
 40
0
 40
0
 40
0
 40
0
 40
1
 40
1
 40
1
 40
1
 10
8.922412
 20
10.695348
 30
0.0
 10
9.002021
 20
10.645622
 30
0.0
 10
9.080278
 20
10.593934
 30
0.0
 10
9.157116
 20
10.540351
 30
0.0
  0
SPLINE
  5
169
100
AcDbEntity
  8
Layer_1
 62
1
100
AcDbSpline
 70
8
 71
3
 72
8
 73
4
 74
0
 40
0
 40
0
 40
0
 40
0
 40
1
 40
1
 40
1
 40
1
 10
9.157116
 20
10.540351
 30
0.0
 10
9.234007
 20
10.486732
 30
0.0
 10
9.309476
 20
10.431216
 30
0.0
 10
9.383457
 20
10.373871
 30
0.0
  0
SPLINE
  5
16a
100
AcDbEntity
  8
Layer_1
 62
1
100
AcDbSpline
 70
8
 71
3
 72
8
 73
4
 74
0
 40
0
 40
0
 40
0
 40
0
 40
1
 40
1
 40
1
 40
1
 10
9.383457
 20
10.373871
 30
0.0
 10
9.457638
 20
10.316369
 30
0.0
 10
9.530323
 20
10.257029
 30
0.0
 10
9.601442
 20
10.195918
 30
0.0
  0
SPLINE
  5
16b
100
AcDbEntity
  8
Layer_1
 62
1
100
AcDbSpline
 70
8
 71
3
 72
8
 73
4
 74
0
 40
0
 40
0
 40
0
 40
0
 40
1
 40
1
 40
1
 40
1
 10
9.601442
 20
10.195918
 30
0.0
 10
9.672581
 20
10.134790
 30
0.0
 10
9.742154
 20
10.071889
 30
0.0
 10
9.810092
 20
10.007286
 30
0.0
  0
SPLINE
  5
16c
100
AcDbEntity
  8
Layer_1
 62
1
100
AcDbSpline
 70
8
 71
3
 72
8
 73
4
 74
0
 40
0
 40
0
 40
0
 40
0
 40
1
 40
1
 40
1
 40
1
 10
9.810092
 20
10.007286
 30
0.0
 10
9.877973
 20
9.942736
 30
0.0
 10
9.944222
 20
9.876486
 30
0.0
 10
10.008771
 20
9.808604
 30
0.0
  0
SPLINE
  5
16d
100
AcDbEntity
  8
Layer_1
 62
1
100
AcDbSpline
 70
8
 71
3
 72
8
 73
4
 74
0
 40
0
 40
0
 40
0
 40
0
 40
1
 40
1
 40
1
 40
1
 10
10.008771
 20
9.808604
 30
0.0
 10
10.073358
 20
9.740682
 30
0.0
 10
10.136243
 20
9.671125
 30
0.0
 10
10.197357
 20
9.600003
 30
0.0
  0
SPLINE
  5
16e
100
AcDbEntity
  8
Layer_1
 62
1
100
AcDbSpline
 70
8
 71
3
 72
8
 73
4
 74
0
 40
0
 40
0
 40
0
 40
0
 40
1
 40
1
 40
1
 40
1
 10
10.197357
 20
9.600003
 30
0.0
 10
10.258477
 20
9.528873
 30
0.0
 10
10.317826
 20
9.456177
 30
0.0
 10
10.375335
 20
9.381984
 30
0.0
  0
SPLINE
  5
16f
100
AcDbEntity
  8
Layer_1
 62
1
100
AcDbSpline
 70
8
 71
3
 72
8
 73
4
 74
0
 40
0
 40
0
 40
0
 40
0
 40
1
 40
1
 40
1
 40
1
 10
10.375335
 20
9.381984
 30
0.0
 10
10.432719
 20
9.307953
 30
0.0
 10
10.488271
 20
9.232431
 30
0.0
 10
10.541923
 20
9.155486
 30
0.0
  0
SPLINE
  5
170
100
AcDbEntity
  8
Layer_1
 62
1
100
AcDbSpline
 70
8
 71
3
 72
8
 73
4
 74
0
 40
0
 40
0
 40
0
 40
0
 40
1
 40
1
 40
1
 40
1
 10
10.541923
 20
9.155486
 30
0.0
 10
10.595475
 20
9.078685
 30
0.0
 10
10.647135
 20
9.000465
 30
0.0
 10
10.696835
 20
8.920895
 30
0.0
  0
SPLINE
  5
171
100
AcDbEntity
  8
Layer_1
 62
1
100
AcDbSpline
 70
8
 71
3
 72
8
 73
4
 74
0
 40
0
 40
0
 40
0
 40
0
 40
1
 40
1
 40
1
 40
1
 10
10.696835
 20
8.920895
 30
0.0
 10
10.746444
 20
8.841471
 30
0.0
 10
10.794100
 20
8.760702
 30
0.0
 10
10.839736
 20
8.678654
 30
0.0
  0
SPLINE
  5
172
100
AcDbEntity
  8
Layer_1
 62
1
100
AcDbSpline
 70
8
 71
3
 72
8
 73
4
 74
0
 40
0
 40
0
 40
0
 40
0
 40
1
 40
1
 40
1
 40
1
 10
10.839736
 20
8.678654
 30
0.0
 10
10.885232
 20
8.596858
 30
0.0
 10
10.928720
 20
8.513792
 30
0.0
 10
10.970134
 20
8.429522
 30
0.0
  0
SPLINE
  5
173
100
AcDbEntity
  8
Layer_1
 62
1
100
AcDbSpline
 70
8
 71
3
 72
8
 73
4
 74
0
 40
0
 40
0
 40
0
 40
0
 40
1
 40
1
 40
1
 40
1
 10
10.970134
 20
8.429522
 30
0.0
 10
11.011372
 20
8.345610
 30
0.0
 10
11.050553
 20
8.260505
 30
0.0
 10
11.087612
 20
8.174272
 30
0.0
  0
SPLINE
  5
174
100
AcDbEntity
  8
Layer_1
 62
1
100
AcDbSpline
 70
8
 71
3
 72
8
 73
4
 74
0
 40
0
 40
0
 40
0
 40
0
 40
1
 40
1
 40
1
 40
1
 10
11.087612
 20
8.174272
 30
0.0
 10
11.124542
 20
8.088337
 30
0.0
 10
11.159364
 20
8.001283
 30
0.0
 10
11.192013
 20
7.913175
 30
0.0
  0
SPLINE
  5
175
100
AcDbEntity
  8
Layer_1
 62
1
100
AcDbSpline
 70
8
 71
3
 72
8
 73
4
 74
0
 40
0
 40
0
 40
0
 40
0
 40
1
 40
1
 40
1
 40
1
 10
11.192013
 20
7.913175
 30
0.0
 10
11.224507
 20
7.825486
 30
0.0
 10
11.254848
 20
7.736754
 30
0.0
 10
11.282973
 20
7.647040
 30
0.0
  0
SPLINE
  5
176
100
AcDbEntity
  8
Layer_1
 62
1
100
AcDbSpline
 70
8
 71
3
 72
8
 73
4
 74
0
 40
0
 40
0
 40
0
 40
0
 40
1
 40
1
 40
1
 40
1
 10
11.282973
 20
7.647040
 30
0.0
 10
11.310928
 20
7.557869
 30
0.0
 10
11.336693
 20
7.467729
 30
0.0
 10
11.360205
 20
7.376683
 30
0.0
  0
SPLINE
  5
177
100
AcDbEntity
  8
Layer_1
 62
1
100
AcDbSpline
 70
8
 71
3
 72
8
 73
4
 74
0
 40
0
 40
0
 40
0
 40
0
 40
1
 40
1
 40
1
 40
1
 10
11.360205
 20
7.376683
 30
0.0
 10
11.383592
 20
7.286123
 30
0.0
 10
11.404750
 20
7.194667
 30
0.0
 10
11.423618
 20
7.102377
 30
0.0
  0
SPLINE
  5
178
100
AcDbEntity
  8
Layer_1
 62
1
100
AcDbSpline
 70
8
 71
3
 72
8
 73
4
 74
0
 40
0
 40
0
 40
0
 40
0
 40
1
 40
1
 40
1
 40
1
 10
11.423618
 20
7.102377
 30
0.0
 10
11.442319
 20
7.010900
 30
0.0
 10
11.458770
 20
6.918604
 30
0.0
 10
11.472910
 20
6.825549
 30
0.0
  0
SPLINE
  5
179
100
AcDbEntity
  8
Layer_1
 62
1
100
AcDbSpline
 70
8
 71
3
 72
8
 73
4
 74
0
 40
0
 40
0
 40
0
 40
0
 40
1
 40
1
 40
1
 40
1
 10
11.472910
 20
6.825549
 30
0.0
 10
11.486944
 20
6.733185
 30
0.0
 10
11.498702
 20
6.640074
 30
0.0
 10
11.508125
 20
6.546274
 30
0.0
  0
SPLINE
  5
17a
100
AcDbEntity
  8
Layer_1
 62
1
100
AcDbSpline
 70
8
 71
3
 72
8
 73
4
 74
0
 40
0
 40
0
 40
0
 40
0
 40
1
 40
1
 40
1
 40
1
 10
11.508125
 20
6.546274
 30
0.0
 10
11.517451
 20
6.453428
 30
0.0
 10
11.524489
 20
6.359907
 30
0.0
 10
11.529182
 20
6.265769
 30
0.0
  0
SPLINE
  5
17b
100
AcDbEntity
  8
Layer_1
 62
1
100
AcDbSpline
 70
8
 71
3
 72
8
 73
4
 74
0
 40
0
 40
0
 40
0
 40
0
 40
1
 40
1
 40
1
 40
1
 10
11.529182
 20
6.265769
 30
0.0
 10
11.533820
 20
6.172727
 30
0.0
 10
11.536166
 20
6.079083
 30
0.0
 10
11.536166
 20
5.984890
 30
0.0
  0
SPLINE
  5
17c
100
AcDbEntity
  8
Layer_1
 62
7
100
AcDbSpline
 70
8
 71
3
 72
8
 73
4
 74
0
 40
0
 40
0
 40
0
 40
0
 40
1
 40
1
 40
1
 40
1
 10
13.330499
 20
5.868052
 30
0.0
 10
13.330499
 20
5.777507
 30
0.0
 10
13.325078
 20
5.688227
 30
0.0
 10
13.314543
 20
5.600520
 30
0.0
  0
SPLINE
  5
17d
100
AcDbEntity
  8
Layer_1
 62
7
100
AcDbSpline
 70
8
 71
3
 72
8
 73
4
 74
0
 40
0
 40
0
 40
0
 40
0
 40
1
 40
1
 40
1
 40
1
 10
13.314543
 20
5.600520
 30
0.0
 10
13.303770
 20
5.510832
 30
0.0
 10
13.287649
 20
5.422789
 30
0.0
 10
13.266509
 20
5.336719
 30
0.0
  0
SPLINE
  5
17e
100
AcDbEntity
  8
Layer_1
 62
7
100
AcDbSpline
 70
8
 71
3
 72
8
 73
4
 74
0
 40
0
 40
0
 40
0
 40
0
 40
1
 40
1
 40
1
 40
1
 10
13.266509
 20
5.336719
 30
0.0
 10
13.245000
 20
5.249146
 30
0.0
 10
13.218294
 20
5.163617
 30
0.0
 10
13.186738
 20
5.080475
 30
0.0
  0
SPLINE
  5
17f
100
AcDbEntity
  8
Layer_1
 62
7
100
AcDbSpline
 70
8
 71
3
 72
8
 73
4
 74
0
 40
0
 40
0
 40
0
 40
0
 40
1
 40
1
 40
1
 40
1
 10
13.186738
 20
5.080475
 30
0.0
 10
13.154851
 20
4.996462
 30
0.0
 10
13.118011
 20
4.914888
 30
0.0
 10
13.076575
 20
4.836109
 30
0.0
  0
SPLINE
  5
180
100
AcDbEntity
  8
Layer_1
 62
7
100
AcDbSpline
 70
8
 71
3
 72
8
 73
4
 74
0
 40
0
 40
0
 40
0
 40
0
 40
1
 40
1
 40
1
 40
1
 10
13.076575
 20
4.836109
 30
0.0
 10
13.034853
 20
4.756785
 30
0.0
 10
12.988470
 20
4.680294
 30
0.0
 10
12.937792
 20
4.607001
 30
0.0
  0
SPLINE
  5
181
100
AcDbEntity
  8
Layer_1
 62
7
100
AcDbSpline
 70
8
 71
3
 72
8
 73
4
 74
0
 40
0
 40
0
 40
0
 40
0
 40
1
 40
1
 40
1
 40
1
 10
12.937792
 20
4.607001
 30
0.0
 10
12.886839
 20
4.533311
 30
0.0
 10
12.831543
 20
4.462854
 30
0.0
 10
12.772274
 20
4.395999
 30
0.0
  0
SPLINE
  5
182
100
AcDbEntity
  8
Layer_1
 62
7
100
AcDbSpline
 70
8
 71
3
 72
8
 73
4
 74
0
 40
0
 40
0
 40
0
 40
0
 40
1
 40
1
 40
1
 40
1
 10
12.772274
 20
4.395999
 30
0.0
 10
12.712899
 20
4.329024
 30
0.0
 10
12.649537
 20
4.265664
 30
0.0
 10
12.582560
 20
4.206291
 30
0.0
  0
SPLINE
  5
183
100
AcDbEntity
  8
Layer_1
 62
7
100
AcDbSpline
 70
8
 71
3
 72
8
 73
4
 74
0
 40
0
 40
0
 40
0
 40
0
 40
1
 40
1
 40
1
 40
1
 10
12.582560
 20
4.206291
 30
0.0
 10
12.515701
 20
4.147023
 30
0.0
 10
12.445239
 20
4.091728
 30
0.0
 10
12.371545
 20
4.040776
 30
0.0
  0
SPLINE
  5
184
100
AcDbEntity
  8
Layer_1
 62
7
100
AcDbSpline
 70
8
 71
3
 72
8
 73
4
 74
0
 40
0
 40
0
 40
0
 40
0
 40
1
 40
1
 40
1
 40
1
 10
12.371545
 20
4.040776
 30
0.0
 10
12.298186
 20
3.990056
 30
0.0
 10
12.221623
 20
3.943639
 30
0.0
 10
12.142223
 20
3.901891
 30
0.0
  0
SPLINE
  5
185
100
AcDbEntity
  8
Layer_1
 62
7
100
AcDbSpline
 70
8
 71
3
 72
8
 73
4
 74
0
 40
0
 40
0
 40
0
 40
0
 40
1
 40
1
 40
1
 40
1
 10
12.142223
 20
3.901891
 30
0.0
 10
12.063359
 20
3.860425
 30
0.0
 10
11.981695
 20
3.823565
 30
0.0
 10
11.897588
 20
3.791669
 30
0.0
  0
SPLINE
  5
186
100
AcDbEntity
  8
Layer_1
 62
7
100
AcDbSpline
 70
8
 71
3
 72
8
 73
4
 74
0
 40
0
 40
0
 40
0
 40
0
 40
1
 40
1
 40
1
 40
1
 10
11.897588
 20
3.791669
 30
0.0
 10
11.814577
 20
3.760187
 30
0.0
 10
11.729186
 20
3.733541
 30
0.0
 10
11.641760
 20
3.712074
 30
0.0
  0
SPLINE
  5
187
100
AcDbEntity
  8
Layer_1
 62
7
100
AcDbSpline
 70
8
 71
3
 72
8
 73
4
 74
0
 40
0
 40
0
 40
0
 40
0
 40
1
 40
1
 40
1
 40
1
 10
11.641760
 20
3.712074
 30
0.0
 10
11.555664
 20
3.690933
 30
0.0
 10
11.467595
 20
3.674815
 30
0.0
 10
11.377879
 20
3.664048
 30
0.0
  0
SPLINE
  5
188
100
AcDbEntity
  8
Layer_1
 62
7
100
AcDbSpline
 70
8
 71
3
 72
8
 73
4
 74
0
 40
0
 40
0
 40
0
 40
0
 40
1
 40
1
 40
1
 40
1
 10
11.377879
 20
3.664048
 30
0.0
 10
11.290242
 20
3.653530
 30
0.0
 10
11.201035
 20
3.648118
 30
0.0
 10
11.110564
 20
3.648118
 30
0.0
  0
SPLINE
  5
189
100
AcDbEntity
  8
Layer_1
 62
7
100
AcDbSpline
 70
8
 71
3
 72
8
 73
4
 74
0
 40
0
 40
0
 40
0
 40
0
 40
1
 40
1
 40
1
 40
1
 10
11.110564
 20
3.648118
 30
0.0
 10
11.020018
 20
3.648118
 30
0.0
 10
10.930738
 20
3.653539
 30
0.0
 10
10.843032
 20
3.664074
 30
0.0
  0
SPLINE
  5
18a
100
AcDbEntity
  8
Layer_1
 62
7
100
AcDbSpline
 70
8
 71
3
 72
8
 73
4
 74
0
 40
0
 40
0
 40
0
 40
0
 40
1
 40
1
 40
1
 40
1
 10
10.843032
 20
3.664074
 30
0.0
 10
10.753344
 20
3.674847
 30
0.0
 10
10.665301
 20
3.690968
 30
0.0
 10
10.579230
 20
3.712108
 30
0.0
  0
SPLINE
  5
18b
100
AcDbEntity
  8
Layer_1
 62
7
100
AcDbSpline
 70
8
 71
3
 72
8
 73
4
 74
0
 40
0
 40
0
 40
0
 40
0
 40
1
 40
1
 40
1
 40
1
 10
10.579230
 20
3.712108
 30
0.0
 10
10.491658
 20
3.733617
 30
0.0
 10
10.406128
 20
3.760323
 30
0.0
 10
10.322986
 20
3.791879
 30
0.0
  0
SPLINE
  5
18c
100
AcDbEntity
  8
Layer_1
 62
7
100
AcDbSpline
 70
8
 71
3
 72
8
 73
4
 74
0
 40
0
 40
0
 40
0
 40
0
 40
1
 40
1
 40
1
 40
1
 10
10.322986
 20
3.791879
 30
0.0
 10
10.238974
 20
3.823766
 30
0.0
 10
10.157400
 20
3.860606
 30
0.0
 10
10.078620
 20
3.902042
 30
0.0
  0
SPLINE
  5
18d
100
AcDbEntity
  8
Layer_1
 62
7
100
AcDbSpline
 70
8
 71
3
 72
8
 73
4
 74
0
 40
0
 40
0
 40
0
 40
0
 40
1
 40
1
 40
1
 40
1
 10
10.078620
 20
3.902042
 30
0.0
 10
9.999296
 20
3.943764
 30
0.0
 10
9.922805
 20
3.990147
 30
0.0
 10
9.849513
 20
4.040826
 30
0.0
  0
SPLINE
  5
18e
100
AcDbEntity
  8
Layer_1
 62
7
100
AcDbSpline
 70
8
 71
3
 72
8
 73
4
 74
0
 40
0
 40
0
 40
0
 40
0
 40
1
 40
1
 40
1
 40
1
 10
9.849513
 20
4.040826
 30
0.0
 10
9.775823
 20
4.091779
 30
0.0
 10
9.705366
 20
4.147075
 30
0.0
 10
9.638511
 20
4.206343
 30
0.0
  0
SPLINE
  5
18f
100
AcDbEntity
  8
Layer_1
 62
7
100
AcDbSpline
 70
8
 71
3
 72
8
 73
4
 74
0
 40
0
 40
0
 40
0
 40
0
 40
1
 40
1
 40
1
 40
1
 10
9.638511
 20
4.206343
 30
0.0
 10
9.571536
 20
4.265718
 30
0.0
 10
9.508176
 20
4.329080
 30
0.0
 10
9.448803
 20
4.396057
 30
0.0
  0
SPLINE
  5
190
100
AcDbEntity
  8
Layer_1
 62
7
100
AcDbSpline
 70
8
 71
3
 72
8
 73
4
 74
0
 40
0
 40
0
 40
0
 40
0
 40
1
 40
1
 40
1
 40
1
 10
9.448803
 20
4.396057
 30
0.0
 10
9.389535
 20
4.462917
 30
0.0
 10
9.334239
 20
4.533379
 30
0.0
 10
9.283287
 20
4.607073
 30
0.0
  0
SPLINE
  5
191
100
AcDbEntity
  8
Layer_1
 62
7
100
AcDbSpline
 70
8
 71
3
 72
8
 73
4
 74
0
 40
0
 40
0
 40
0
 40
0
 40
1
 40
1
 40
1
 40
1
 10
9.283287
 20
4.607073
 30
0.0
 10
9.232567
 20
4.680432
 30
0.0
 10
9.186151
 20
4.756994
 30
0.0
 10
9.144403
 20
4.836395
 30
0.0
  0
SPLINE
  5
192
100
AcDbEntity
  8
Layer_1
 62
7
100
AcDbSpline
 70
8
 71
3
 72
8
 73
4
 74
0
 40
0
 40
0
 40
0
 40
0
 40
1
 40
1
 40
1
 40
1
 10
9.144403
 20
4.836395
 30
0.0
 10
9.102937
 20
4.915259
 30
0.0
 10
9.066077
 20
4.996923
 30
0.0
 10
9.034180
 20
5.081029
 30
0.0
  0
SPLINE
  5
193
100
AcDbEntity
  8
Layer_1
 62
7
100
AcDbSpline
 70
8
 71
3
 72
8
 73
4
 74
0
 40
0
 40
0
 40
0
 40
0
 40
1
 40
1
 40
1
 40
1
 10
9.034180
 20
5.081029
 30
0.0
 10
9.002699
 20
5.164041
 30
0.0
 10
8.976053
 20
5.249431
 30
0.0
 10
8.954585
 20
5.336857
 30
0.0
  0
SPLINE
  5
194
100
AcDbEntity
  8
Layer_1
 62
7
100
AcDbSpline
 70
8
 71
3
 72
8
 73
4
 74
0
 40
0
 40
0
 40
0
 40
0
 40
1
 40
1
 40
1
 40
1
 10
8.954585
 20
5.336857
 30
0.0
 10
8.933445
 20
5.422953
 30
0.0
 10
8.917326
 20
5.511023
 30
0.0
 10
8.906559
 20
5.600738
 30
0.0
  0
SPLINE
  5
195
100
AcDbEntity
  8
Layer_1
 62
7
100
AcDbSpline
 70
8
 71
3
 72
8
 73
4
 74
0
 40
0
 40
0
 40
0
 40
0
 40
1
 40
1
 40
1
 40
1
 10
8.906559
 20
5.600738
 30
0.0
 10
8.896041
 20
5.688375
 30
0.0
 10
8.890629
 20
5.777582
 30
0.0
 10
8.890629
 20
5.868052
 30
0.0
  0
SPLINE
  5
196
100
AcDbEntity
  8
Layer_1
 62
7
100
AcDbSpline
 70
8
 71
3
 72
8
 73
4
 74
0
 40
0
 40
0
 40
0
 40
0
 40
1
 40
1
 40
1
 40
1
 10
8.890629
 20
5.868052
 30
0.0
 10
8.890629
 20
5.958598
 30
0.0
 10
8.896050
 20
6.047878
 30
0.0
 10
8.906585
 20
6.135585
 30
0.0
  0
SPLINE
  5
197
100
AcDbEntity
  8
Layer_1
 62
7
100
AcDbSpline
 70
8
 71
3
 72
8
 73
4
 74
0
 40
0
 40
0
 40
0
 40
0
 40
1
 40
1
 40
1
 40
1
 10
8.906585
 20
6.135585
 30
0.0
 10
8.917358
 20
6.225273
 30
0.0
 10
8.933479
 20
6.313316
 30
0.0
 10
8.954619
 20
6.399386
 30
0.0
  0
SPLINE
  5
198
100
AcDbEntity
  8
Layer_1
 62
7
100
AcDbSpline
 70
8
 71
3
 72
8
 73
4
 74
0
 40
0
 40
0
 40
0
 40
0
 40
1
 40
1
 40
1
 40
1
 10
8.954619
 20
6.399386
 30
0.0
 10
8.976129
 20
6.486959
 30
0.0
 10
9.002834
 20
6.572488
 30
0.0
 10
9.034391
 20
6.655630
 30
0.0
  0
SPLINE
  5
199
100
AcDbEntity
  8
Layer_1
 62
7
100
AcDbSpline
 70
8
 71
3
 72
8
 73
4
 74
0
 40
0
 40
0
 40
0
 40
0
 40
1
 40
1
 40
1
 40
1
 10
9.034391
 20
6.655630
 30
0.0
 10
9.066277
 20
6.739643
 30
0.0
 10
9.103117
 20
6.821217
 30
0.0
 10
9.144553
 20
6.899996
 30
0.0
  0
SPLINE
  5
19a
100
AcDbEntity
  8
Layer_1
 62
7
100
AcDbSpline
 70
8
 71
3
 72
8
 73
4
 74
0
 40
0
 40
0
 40
0
 40
0
 40
1
 40
1
 40
1
 40
1
 10
9.144553
 20
6.899996
 30
0.0
 10
9.186276
 20
6.979320
 30
0.0
 10
9.232658
 20
7.055811
 30
0.0
 10
9.283337
 20
7.129104
 30
0.0
  0
SPLINE
  5
19b
100
AcDbEntity
  8
Layer_1
 62
7
100
AcDbSpline
 70
8
 71
3
 72
8
 73
4
 74
0
 40
0
 40
0
 40
0
 40
0
 40
1
 40
1
 40
1
 40
1
 10
9.283337
 20
7.129104
 30
0.0
 10
9.334290
 20
7.202794
 30
0.0
 10
9.389586
 20
7.273251
 30
0.0
 10
9.448855
 20
7.340106
 30
0.0
  0
SPLINE
  5
19c
100
AcDbEntity
  8
Layer_1
 62
7
100
AcDbSpline
 70
8
 71
3
 72
8
 73
4
 74
0
 40
0
 40
0
 40
0
 40
0
 40
1
 40
1
 40
1
 40
1
 10
9.448855
 20
7.340106
 30
0.0
 10
9.508230
 20
7.407081
 30
0.0
 10
9.571592
 20
7.470441
 30
0.0
 10
9.638569
 20
7.529814
 30
0.0
  0
SPLINE
  5
19d
100
AcDbEntity
  8
Layer_1
 62
7
100
AcDbSpline
 70
8
 71
3
 72
8
 73
4
 74
0
 40
0
 40
0
 40
0
 40
0
 40
1
 40
1
 40
1
 40
1
 10
9.638569
 20
7.529814
 30
0.0
 10
9.705428
 20
7.589082
 30
0.0
 10
9.775890
 20
7.644377
 30
0.0
 10
9.849584
 20
7.695329
 30
0.0
  0
SPLINE
  5
19e
100
AcDbEntity
  8
Layer_1
 62
7
100
AcDbSpline
 70
8
 71
3
 72
8
 73
4
 74
0
 40
0
 40
0
 40
0
 40
0
 40
1
 40
1
 40
1
 40
1
 10
9.849584
 20
7.695329
 30
0.0
 10
9.922944
 20
7.746049
 30
0.0
 10
9.999506
 20
7.792466
 30
0.0
 10
10.078906
 20
7.834214
 30
0.0
  0
SPLINE
  5
19f
100
AcDbEntity
  8
Layer_1
 62
7
100
AcDbSpline
 70
8
 71
3
 72
8
 73
4
 74
0
 40
0
 40
0
 40
0
 40
0
 40
1
 40
1
 40
1
 40
1
 10
10.078906
 20
7.834214
 30
0.0
 10
10.157770
 20
7.875680
 30
0.0
 10
10.239434
 20
7.912540
 30
0.0
 10
10.323541
 20
7.944436
 30
0.0
  0
SPLINE
  5
1a0
100
AcDbEntity
  8
Layer_1
 62
7
100
AcDbSpline
 70
8
 71
3
 72
8
 73
4
 74
0
 40
0
 40
0
 40
0
 40
0
 40
1
 40
1
 40
1
 40
1
 10
10.323541
 20
7.944436
 30
0.0
 10
10.406552
 20
7.975918
 30
0.0
 10
10.491943
 20
8.002564
 30
0.0
 10
10.579369
 20
8.024031
 30
0.0
  0
SPLINE
  5
1a1
100
AcDbEntity
  8
Layer_1
 62
7
100
AcDbSpline
 70
8
 71
3
 72
8
 73
4
 74
0
 40
0
 40
0
 40
0
 40
0
 40
1
 40
1
 40
1
 40
1
 10
10.579369
 20
8.024031
 30
0.0
 10
10.665464
 20
8.045172
 30
0.0
 10
10.753534
 20
8.061290
 30
0.0
 10
10.843249
 20
8.072057
 30
0.0
  0
SPLINE
  5
1a2
100
AcDbEntity
  8
Layer_1
 62
7
100
AcDbSpline
 70
8
 71
3
 72
8
 73
4
 74
0
 40
0
 40
0
 40
0
 40
0
 40
1
 40
1
 40
1
 40
1
 10
10.843249
 20
8.072057
 30
0.0
 10
10.930886
 20
8.082575
 30
0.0
 10
11.020093
 20
8.087987
 30
0.0
 10
11.110564
 20
8.087987
 30
0.0
  0
SPLINE
  5
1a3
100
AcDbEntity
  8
Layer_1
 62
7
100
AcDbSpline
 70
8
 71
3
 72
8
 73
4
 74
0
 40
0
 40
0
 40
0
 40
0
 40
1
 40
1
 40
1
 40
1
 10
11.110564
 20
8.087987
 30
0.0
 10
11.201110
 20
8.087987
 30
0.0
 10
11.290390
 20
8.082566
 30
0.0
 10
11.378097
 20
8.072031
 30
0.0
  0
SPLINE
  5
1a4
100
AcDbEntity
  8
Layer_1
 62
7
100
AcDbSpline
 70
8
 71
3
 72
8
 73
4
 74
0
 40
0
 40
0
 40
0
 40
0
 40
1
 40
1
 40
1
 40
1
 10
11.378097
 20
8.072031
 30
0.0
 10
11.467785
 20
8.061258
 30
0.0
 10
11.555828
 20
8.045137
 30
0.0
 10
11.641899
 20
8.023997
 30
0.0
  0
SPLINE
  5
1a5
100
AcDbEntity
  8
Layer_1
 62
7
100
AcDbSpline
 70
8
 71
3
 72
8
 73
4
 74
0
 40
0
 40
0
 40
0
 40
0
 40
1
 40
1
 40
1
 40
1
 10
11.641899
 20
8.023997
 30
0.0
 10
11.729471
 20
8.002488
 30
0.0
 10
11.815001
 20
7.975782
 30
0.0
 10
11.898143
 20
7.944226
 30
0.0
  0
SPLINE
  5
1a6
100
AcDbEntity
  8
Layer_1
 62
7
100
AcDbSpline
 70
8
 71
3
 72
8
 73
4
 74
0
 40
0
 40
0
 40
0
 40
0
 40
1
 40
1
 40
1
 40
1
 10
11.898143
 20
7.944226
 30
0.0
 10
11.982155
 20
7.912339
 30
0.0
 10
12.063730
 20
7.875499
 30
0.0
 10
12.142509
 20
7.834063
 30
0.0
  0
SPLINE
  5
1a7
100
AcDbEntity
  8
Layer_1
 62
7
100
AcDbSpline
 70
8
 71
3
 72
8
 73
4
 74
0
 40
0
 40
0
 40
0
 40
0
 40
1
 40
1
 40
1
 40
1
 10
12.142509
 20
7.834063
 30
0.0
 10
12.221833
 20
7.792341
 30
0.0
 10
12.298324
 20
7.745958
 30
0.0
 10
12.371617
 20
7.695279
 30
0.0
  0
SPLINE
  5
1a8
100
AcDbEntity
  8
Layer_1
 62
7
100
AcDbSpline
 70
8
 71
3
 72
8
 73
4
 74
0
 40
0
 40
0
 40
0
 40
0
 40
1
 40
1
 40
1
 40
1
 10
12.371617
 20
7.695279
 30
0.0
 10
12.445306
 20
7.644326
 30
0.0
 10
12.515763
 20
7.589030
 30
0.0
 10
12.582618
 20
7.529762
 30
0.0
  0
SPLINE
  5
1a9
100
AcDbEntity
  8
Layer_1
 62
7
100
AcDbSpline
 70
8
 71
3
 72
8
 73
4
 74
0
 40
0
 40
0
 40
0
 40
0
 40
1
 40
1
 40
1
 40
1
 10
12.582618
 20
7.529762
 30
0.0
 10
12.649593
 20
7.470387
 30
0.0
 10
12.712953
 20
7.407025
 30
0.0
 10
12.772326
 20
7.340048
 30
0.0
  0
SPLINE
  5
1aa
100
AcDbEntity
  8
Layer_1
 62
7
100
AcDbSpline
 70
8
 71
3
 72
8
 73
4
 74
0
 40
0
 40
0
 40
0
 40
0
 40
1
 40
1
 40
1
 40
1
 10
12.772326
 20
7.340048
 30
0.0
 10
12.831594
 20
7.273188
 30
0.0
 10
12.886889
 20
7.202726
 30
0.0
 10
12.937841
 20
7.129032
 30
0.0
  0
SPLINE
  5
1ab
100
AcDbEntity
  8
Layer_1
 62
7
100
AcDbSpline
 70
8
 71
3
 72
8
 73
4
 74
0
 40
0
 40
0
 40
0
 40
0
 40
1
 40
1
 40
1
 40
1
 10
12.937841
 20
7.129032
 30
0.0
 10
12.988561
 20
7.055673
 30
0.0
 10
13.034978
 20
6.979111
 30
0.0
 10
13.076726
 20
6.899710
 30
0.0
  0
SPLINE
  5
1ac
100
AcDbEntity
  8
Layer_1
 62
7
100
AcDbSpline
 70
8
 71
3
 72
8
 73
4
 74
0
 40
0
 40
0
 40
0
 40
0
 40
1
 40
1
 40
1
 40
1
 10
13.076726
 20
6.899710
 30
0.0
 10
13.118192
 20
6.820846
 30
0.0
 10
13.155052
 20
6.739182
 30
0.0
 10
13.186948
 20
6.655076
 30
0.0
  0
SPLINE
  5
1ad
100
AcDbEntity
  8
Layer_1
 62
7
100
AcDbSpline
 70
8
 71
3
 72
8
 73
4
 74
0
 40
0
 40
0
 40
0
 40
0
 40
1
 40
1
 40
1
 40
1
 10
13.186948
 20
6.655076
 30
0.0
 10
13.218429
 20
6.572064
 30
0.0
 10
13.245075
 20
6.486674
 30
0.0
 10
13.266543
 20
6.399248
 30
0.0
  0
SPLINE
  5
1ae
100
AcDbEntity
  8
Layer_1
 62
7
100
AcDbSpline
 70
8
 71
3
 72
8
 73
4
 74
0
 40
0
 40
0
 40
0
 40
0
 40
1
 40
1
 40
1
 40
1
 10
13.266543
 20
6.399248
 30
0.0
 10
13.287683
 20
6.313152
 30
0.0
 10
13.303802
 20
6.225082
 30
0.0
 10
13.314569
 20
6.135367
 30
0.0
  0
SPLINE
  5
1af
100
AcDbEntity
  8
Layer_1
 62
7
100
AcDbSpline
 70
8
 71
3
 72
8
 73
4
 74
0
 40
0
 40
0
 40
0
 40
0
 40
1
 40
1
 40
1
 40
1
 10
13.314569
 20
6.135367
 30
0.0
 10
13.325087
 20
6.047730
 30
0.0
 10
13.330499
 20
5.958523
 30
0.0
 10
13.330499
 20
5.868052
 30
0.0
  0
LWPOLYLINE
  5
1b0
100
AcDbEntity
  8
Layer_1
 62
1
100
AcDbPolyline
 90
2
 70
0
 10
11.536166
 20
5.984890
 30
0.0
 10
11.536166
 20
5.984890
 30
0.0
  0
LWPOLYLINE
  5
1b1
100
AcDbEntity
  8
Layer_1
 62
7
100
AcDbPolyline
 90
2
 70
0
 10
13.330499
 20
5.868052
 30
0.0
 10
13.330499
 20
5.868052
 30
0.0
  0
ENDSEC
  0
SECTION
  2
OBJECTS
  0
DICTIONARY
  5
C
330
0
100
AcDbDictionary
  3
ACAD_GROUP
350
D
  3
ACAD_MLINESTYLE
350
17
  0
DICTIONARY
  5
D
330
C
100
AcDbDictionary
  0
DICTIONARY
  5
1A
330
C
100
AcDbDictionary
  0
DICTIONARY
  5
17
330
C
100
AcDbDictionary
  3
STANDARD
350
18
  0
DICTIONARY
  5
19
330
C
100
AcDbDictionary
  0
ENDSEC
  0
EOF
